<svg width="40" height="45" viewBox="0 0 40 45" fill="none" xmlns="http://www.w3.org/2000/svg">
<path d="M37.328 27.4055L25.833 23.3455C25.2278 23.1292 24.5169 23.0094 23.7855 23.0005C23.0541 22.9917 22.3335 23.0941 21.71 23.2955L2.805 29.4155C2.25385 29.5945 1.79872 29.8446 1.48282 30.1421C1.16691 30.4396 1.00072 30.7747 1 31.1155V36.9355C0.999067 37.2631 1.15105 37.5858 1.44259 37.8753C1.73413 38.1647 2.15631 38.4121 2.672 38.5955L14.167 42.6655C14.7722 42.8818 15.4831 43.0016 16.2145 43.0105C16.9459 43.0194 17.6665 42.9169 18.29 42.7155L37.195 36.5955C37.7462 36.4166 38.2013 36.1665 38.5172 35.869C38.8331 35.5714 38.9993 35.2364 39 34.8955V29.0655C39.0009 28.7379 38.849 28.4152 38.5574 28.1258C38.2659 27.8363 37.8437 27.589 37.328 27.4055Z" fill="#B9B9B9" stroke="black" stroke-width="2" stroke-linecap="round" stroke-linejoin="round"/>
<path d="M16.2 43.0055V35.0055L1.475 30.1555" fill="#B9B9B9"/>
<path d="M16.2 43.0055V35.0055L1.475 30.1555" stroke="black" stroke-width="2" stroke-linecap="round" stroke-linejoin="round"/>
<path d="M16.2 35.0055L38.563 28.1355Z" fill="#B9B9B9"/>
<path d="M16.2 35.0055L38.563 28.1355" stroke="black" stroke-width="2" stroke-linecap="round" stroke-linejoin="round"/>
<path d="M37.328 5.40552L25.833 1.34552C25.2278 1.12919 24.5169 1.0094 23.7855 1.00053C23.0541 0.991662 22.3335 1.09409 21.71 1.29552L2.805 7.41552C2.25385 7.59446 1.79872 7.84456 1.48282 8.14208C1.16691 8.43961 1.00072 8.77469 1 9.11552V14.9355C0.999067 15.2631 1.15105 15.5858 1.44259 15.8753C1.73413 16.1647 2.15631 16.4121 2.672 16.5955L14.167 20.6655C14.7722 20.8818 15.4831 21.0016 16.2145 21.0105C16.9459 21.0194 17.6665 20.9169 18.29 20.7155L37.195 14.5955C37.7462 14.4166 38.2013 14.1665 38.5172 13.869C38.8331 13.5714 38.9993 13.2364 39 12.8955V7.06552C39.0009 6.73791 38.849 6.4152 38.5574 6.12575C38.2659 5.8363 37.8437 5.58898 37.328 5.40552Z" fill="white" stroke="black" stroke-width="2" stroke-linecap="round" stroke-linejoin="round"/>
<path d="M16.2 21.0055V13.0055L1.475 8.15552" stroke="black" stroke-width="2" stroke-linecap="round" stroke-linejoin="round"/>
<path d="M16.2 13.0055L38.563 6.1355" stroke="black" stroke-width="2" stroke-linecap="round" stroke-linejoin="round"/>
<path d="M32 28L32 16" stroke="black" stroke-linecap="round"/>
<path d="M7 30L7 18" stroke="black" stroke-linecap="round"/>
<path d="M23 27L23 19" stroke="black" stroke-linecap="round"/>
<path d="M26.384 24.6231L22.149 23.1273C21.926 23.0476 21.6641 23.0035 21.3947 23.0002C21.1252 22.9969 20.8597 23.0347 20.63 23.1089L13.665 25.3636C13.4619 25.4295 13.2943 25.5217 13.1779 25.6313C13.0615 25.7409 13.0003 25.8644 13 25.9899V28.1341C12.9997 28.2548 13.0556 28.3737 13.1631 28.4804C13.2705 28.587 13.426 28.6781 13.616 28.7457L17.851 30.2452C18.074 30.3249 18.3359 30.369 18.6053 30.3723C18.8748 30.3756 19.1403 30.3378 19.37 30.2636L26.335 28.0089C26.5381 27.943 26.7057 27.8508 26.8221 27.7412C26.9385 27.6316 26.9997 27.5081 27 27.3826V25.2347C27.0003 25.114 26.9444 24.9951 26.8369 24.8884C26.7295 24.7818 26.574 24.6907 26.384 24.6231Z" fill="#F6FF00" stroke="black" stroke-linecap="round" stroke-linejoin="round"/>
<path d="M18.6 30.3704V27.4231L13.175 25.6362" fill="#F6FF00"/>
<path d="M18.6 30.3704V27.4231L13.175 25.6362" stroke="black" stroke-linecap="round" stroke-linejoin="round"/>
<path d="M18.6 27.423L26.839 24.892Z" fill="#F6FF00"/>
<path d="M18.6 27.423L26.839 24.892" stroke="black" stroke-linecap="round" stroke-linejoin="round"/>
<path d="M16 33L16 21" stroke="black" stroke-linecap="round"/>
</svg>
